# xmcd
#
# Track frame offsets:
# 150
# 10749
# 20685
# 30144
# 40208
# 54672
# 65361
# 76595
# 87837
# 97716
# 108012
# 119079
# 132003
# 142647
# 154938
# 170302
# 184724
# 197175
# 207767
# 221313
# 232817
# 246814
# 265461
# 280348
# 292382
# 304321
# 319738
#
# Disc length: 4426 seconds
#
#
# Revision: 0
# Processed by: cddbd v1.5.2PL0 Copyright (c) Steve Scherf et al.
# Submitted via: FreeRIP 2.944 
#
DISCID=6a11481b
DTITLE=Chet Atkins - The Guitar Man
DYEAR=1900
DGENRE=Instrumental
TTITLE0=Mr. Sandman
TTITLE1=Boo Boo Stick Beat
TTITLE2=Yakety Axe
TTITLE3=Jerry's Breakdown
TTITLE4=Fiddlin' Around
TTITLE5=The Entertainer
TTITLE6=Heartbreak Hotel
TTITLE7=Balckjack
TTITLE8=One Mint Julep
TTITLE9=Teensville
TTITLE10=Hot Toddy
TTITLE11=Mystery Train
TTITLE12=Suzie-Q
TTITLE13=Do I ever cross your mind
TTITLE14=I'll see you in my dreams
TTITLE15=Tennessee Stud
TTITLE16=Take Five
TTITLE17=Trambone
TTITLE18=It don't mean a thing (if it ain't got that swing)
TTITLE19=Sleepwalk
TTITLE20=On the road again
TTITLE21=Orange Blossom Special
TTITLE22=Vincent
TTITLE23=Limehouse Blues
TTITLE24=Struttin'
TTITLE25=I'll see you in my dreams
TTITLE26=Medley- Black and White-Ragtime Annie
EXTD=
EXTT0=
EXTT1=
EXTT2=
EXTT3=
EXTT4=
EXTT5=
EXTT6=
EXTT7=
EXTT8=
EXTT9=
EXTT10=
EXTT11=
EXTT12=
EXTT13=
EXTT14=
EXTT15=
EXTT16=
EXTT17=
EXTT18=
EXTT19=
EXTT20=
EXTT21=
EXTT22=
EXTT23=
EXTT24=
EXTT25=
EXTT26=
PLAYORDER=
